<svg width="279" height="201" viewBox="0 0 279 201" fill="none" xmlns="http://www.w3.org/2000/svg">
<path d="M1.75273e-05 0.00195923C11.4612 14.8499 29.3439 24.9446 48.1957 24.9967C56.3225 25.0205 64.4398 23.4218 72.5429 24.0527C83.7666 24.9256 94.5818 30.2481 102.115 38.6018C102.115 38.6018 107.311 48.3834 120.61 71.1533C133.91 93.9233 159.558 109.103 185.207 103.411C210.856 97.7183 220.289 104.379 220.289 104.379C229.166 109.573 236.561 118.591 236.732 128.866C236.898 138.761 230.558 147.594 228.9 157.347C226.174 173.39 237.312 189.647 252.207 196.241C260.676 199.989 269.99 201.056 279.252 200.226L279.252 0.00198364L1.75273e-05 0.00195923Z" fill="url(#paint0_linear_4759_2811)"/>
<defs>
<linearGradient id="paint0_linear_4759_2811" x1="122.312" y1="118.548" x2="352.839" y2="-127.469" gradientUnits="userSpaceOnUse">
<stop stop-color="white" stop-opacity="0.08"/>
<stop offset="1" stop-color="white" stop-opacity="0"/>
</linearGradient>
</defs>
</svg>
